<svg width="13" height="10" viewBox="0 0 13 10" fill="none" xmlns="http://www.w3.org/2000/svg">
<path d="M6.5 3C6.02984 3 5.57894 3.21071 5.24649 3.58579C4.91404 3.96086 4.72727 4.46957 4.72727 5C4.72727 5.53043 4.91404 6.03914 5.24649 6.41421C5.57894 6.78929 6.02984 7 6.5 7C6.97016 7 7.42106 6.78929 7.75351 6.41421C8.08596 6.03914 8.27273 5.53043 8.27273 5C8.27273 4.46957 8.08596 3.96086 7.75351 3.58579C7.42106 3.21071 6.97016 3 6.5 3ZM6.5 8.33333C5.71641 8.33333 4.96491 7.98214 4.41082 7.35702C3.85674 6.7319 3.54545 5.88406 3.54545 5C3.54545 4.11595 3.85674 3.2681 4.41082 2.64298C4.96491 2.01786 5.71641 1.66667 6.5 1.66667C7.28359 1.66667 8.03509 2.01786 8.58918 2.64298C9.14326 3.2681 9.45455 4.11595 9.45455 5C9.45455 5.88406 9.14326 6.7319 8.58918 7.35702C8.03509 7.98214 7.28359 8.33333 6.5 8.33333ZM6.5 0C3.54545 0 1.02227 2.07333 0 5C1.02227 7.92667 3.54545 10 6.5 10C9.45455 10 11.9777 7.92667 13 5C11.9777 2.07333 9.45455 0 6.5 0Z" fill="#DAD3D3"/>
</svg>
