<svg width="63" height="63" viewBox="0 0 63 63" fill="none" xmlns="http://www.w3.org/2000/svg">
<path d="M32.2324 4.38244C31.7623 4.19405 31.2377 4.19405 30.7676 4.38244L7.26862 13.7812L31.5 23.4714L55.7314 13.7812L32.2324 4.38244ZM59.0625 16.6911L33.4688 26.9286V58.1214L59.0625 47.8839V16.695V16.6911ZM29.5312 58.1254V26.9246L3.9375 16.6911V47.8879L29.5312 58.1254V58.1254ZM29.3068 0.724499C30.7147 0.161434 32.2853 0.161434 33.6932 0.724499L61.7636 11.9542C62.1286 12.1005 62.4414 12.3527 62.6617 12.6783C62.8821 13.0039 62.9999 13.3881 63 13.7812V47.8879C62.9995 48.6747 62.7633 49.4433 62.3219 50.0946C61.8804 50.7459 61.254 51.25 60.5233 51.5419L32.2324 62.8582C31.7623 63.0466 31.2377 63.0466 30.7676 62.8582L2.48062 51.5419C1.74924 51.2506 1.12196 50.7468 0.679778 50.0954C0.237596 49.4441 0.000812421 48.6751 0 47.8879L0 13.7812C9.15073e-05 13.3881 0.117903 13.0039 0.338259 12.6783C0.558614 12.3527 0.871419 12.1005 1.23638 11.9542L29.3068 0.724499Z" fill="white"/>
</svg>
