<svg width="16" height="16" viewBox="0 0 16 16" fill="none" xmlns="http://www.w3.org/2000/svg">
<path d="M8.5 0C6.25994 0 4.4375 1.7944 4.4375 4V5.6H3.625C2.72881 5.6 2 6.3176 2 7.2V14.4C2 15.2824 2.72881 16 3.625 16H13.375C14.2712 16 15 15.2824 15 14.4V7.2C15 6.3176 14.2712 5.6 13.375 5.6H12.5625V4C12.5625 1.7944 10.7401 0 8.5 0ZM6.0625 4C6.0625 2.6768 7.15613 1.6 8.5 1.6C9.84388 1.6 10.9375 2.6768 10.9375 4V5.6H6.0625V4ZM13.3766 14.4H9.3125V12.5776C9.79594 12.3 10.125 11.7896 10.125 11.2C10.125 10.3176 9.39619 9.6 8.5 9.6C7.60381 9.6 6.875 10.3176 6.875 11.2C6.875 11.7888 7.20406 12.3 7.6875 12.5776V14.4H3.625V7.2H13.375L13.3766 14.4Z" fill="#DAD3D3"/>
</svg>
