<svg width="14" height="14" viewBox="0 0 14 14" fill="none" xmlns="http://www.w3.org/2000/svg">
<path d="M12.25 12.25H1.75V1.75H12.25V12.25ZM12.25 0.25H1.75C1.35218 0.25 0.970644 0.408035 0.68934 0.68934C0.408035 0.970644 0.25 1.35218 0.25 1.75V12.25C0.25 12.6478 0.408035 13.0294 0.68934 13.3107C0.970644 13.592 1.35218 13.75 1.75 13.75H12.25C12.6478 13.75 13.0294 13.592 13.3107 13.3107C13.592 13.0294 13.75 12.6478 13.75 12.25V1.75C13.75 1.35218 13.592 0.970644 13.3107 0.68934C13.0294 0.408035 12.6478 0.25 12.25 0.25ZM10.375 10.1875C10.375 9.0625 8.125 8.5 7 8.5C5.875 8.5 3.625 9.0625 3.625 10.1875V10.75H10.375V10.1875ZM7 7.1875C7.44755 7.1875 7.87677 7.00971 8.19324 6.69324C8.50971 6.37677 8.6875 5.94755 8.6875 5.5C8.6875 5.05245 8.50971 4.62323 8.19324 4.30676C7.87677 3.99029 7.44755 3.8125 7 3.8125C6.55245 3.8125 6.12323 3.99029 5.80676 4.30676C5.49029 4.62323 5.3125 5.05245 5.3125 5.5C5.3125 5.94755 5.49029 6.37677 5.80676 6.69324C6.12323 7.00971 6.55245 7.1875 7 7.1875Z" fill="#DAD3D3"/>
</svg>
